<?plantuml 1.2026.1?><svg xmlns="http://www.w3.org/2000/svg" xmlns:xlink="http://www.w3.org/1999/xlink" contentStyleType="text/css" data-diagram-type="DESCRIPTION" height="1632px" preserveAspectRatio="none" style="width:632px;height:1632px;background:#FFFFFF;" version="1.1" viewBox="0 0 632 1632" width="632px" zoomAndPan="magnify"><defs/><g><!--cluster Syst?me de Jeu--><g class="cluster" data-qualified-name="Syst.me de Jeu" data-source-line="8" id="ent0005"><rect fill="none" height="1619" rx="2.5" ry="2.5" style="stroke:#181818;stroke-width:1;" width="391.13" x="235.41" y="7"/><text fill="#000000" font-family="sans-serif" font-size="14" font-weight="bold" lengthAdjust="spacing" textLength="121.748" x="370.101" y="21.9951">Syst&#232;me de Jeu</text></g><!--cluster Phase Inscription & Vente--><g class="cluster" data-qualified-name="Syst.me de Jeu.Phase Inscription . Vente" data-source-line="10" id="ent0006"><rect fill="none" height="378" rx="2.5" ry="2.5" style="stroke:#181818;stroke-width:1;" width="329.67" x="266.14" y="50"/><text fill="#000000" font-family="sans-serif" font-size="14" font-weight="bold" lengthAdjust="spacing" textLength="205.4268" x="328.2616" y="64.9951">Phase Inscription &amp; Vente</text></g><!--cluster Phase de Jeu--><g class="cluster" data-qualified-name="Syst.me de Jeu.Phase de Jeu" data-source-line="17" id="ent0011"><rect fill="none" height="455" rx="2.5" ry="2.5" style="stroke:#181818;stroke-width:1;" width="336.01" x="262.97" y="452"/><text fill="#000000" font-family="sans-serif" font-size="14" font-weight="bold" lengthAdjust="spacing" textLength="101.4385" x="380.2558" y="466.9951">Phase de Jeu</text></g><!--cluster Administration--><g class="cluster" data-qualified-name="Syst.me de Jeu.Administration" data-source-line="25" id="ent0017"><rect fill="none" height="671" rx="2.5" ry="2.5" style="stroke:#181818;stroke-width:1;" width="343.13" x="259.41" y="931"/><text fill="#000000" font-family="sans-serif" font-size="14" font-weight="bold" lengthAdjust="spacing" textLength="117.4619" x="372.244" y="945.9951">Administration</text></g><!--entity UC1--><g class="entity" data-qualified-name="Syst.me de Jeu.Phase Inscription . Vente.UC1" data-source-line="11" id="ent0007"><ellipse cx="430.9681" cy="109.9956" fill="#F1F1F1" rx="114.1281" ry="25.2256" style="stroke:#181818;stroke-width:0.5;"/><text fill="#000000" font-family="sans-serif" font-size="14" lengthAdjust="spacing" textLength="206.7803" x="327.5779" y="114.644">D&#233;couvrir l'univers et le pitch</text></g><!--entity UC2--><g class="entity" data-qualified-name="Syst.me de Jeu.Phase Inscription . Vente.UC2" data-source-line="12" id="ent0008"><ellipse cx="430.9741" cy="201.9968" fill="#F1F1F1" rx="148.8341" ry="32.1668" style="stroke:#181818;stroke-width:0.5;"/><text fill="#000000" font-family="sans-serif" font-size="14" lengthAdjust="spacing" textLength="280.0547" x="290.9467" y="206.6453">G&#233;rer son compte (Cr&#233;ation/Connexion)</text></g><!--entity UC3--><g class="entity" data-qualified-name="Syst.me de Jeu.Phase Inscription . Vente.UC3" data-source-line="13" id="ent0009"><ellipse cx="430.9741" cy="296.0048" fill="#F1F1F1" rx="123.4241" ry="27.0848" style="stroke:#181818;stroke-width:0.5;"/><text fill="#000000" font-family="sans-serif" font-size="14" lengthAdjust="spacing" textLength="226.6455" x="317.6514" y="300.6533">S'inscrire &#224; l'&#233;v&#233;nement (Alerte)</text></g><!--entity UC4--><g class="entity" data-qualified-name="Syst.me de Jeu.Phase Inscription . Vente.UC4" data-source-line="14" id="ent0010"><ellipse cx="430.9739" cy="384.9968" fill="#F1F1F1" rx="122.0839" ry="26.8168" style="stroke:#181818;stroke-width:0.5;"/><text fill="#000000" font-family="sans-serif" font-size="14" lengthAdjust="spacing" textLength="223.7949" x="319.0764" y="389.6452">Acheter un ticket (Lien externe)</text></g><!--entity UC5--><g class="entity" data-qualified-name="Syst.me de Jeu.Phase de Jeu.UC5" data-source-line="18" id="ent0012"><ellipse cx="430.9652" cy="505.003" fill="#F1F1F1" rx="80.1652" ry="18.433" style="stroke:#181818;stroke-width:0.5;"/><text fill="#000000" font-family="sans-serif" font-size="14" lengthAdjust="spacing" textLength="131.0654" x="365.4324" y="509.6515">Choisir une &#233;quipe</text></g><!--entity UC6--><g class="entity" data-qualified-name="Syst.me de Jeu.Phase de Jeu.UC6" data-source-line="19" id="ent0013"><ellipse cx="430.9714" cy="585.0003" fill="#F1F1F1" rx="121.4514" ry="26.6903" style="stroke:#181818;stroke-width:0.5;"/><text fill="#000000" font-family="sans-serif" font-size="14" lengthAdjust="spacing" textLength="222.4482" x="319.7473" y="589.6487">Acc&#233;der au dashboard d'&#233;quipe</text></g><!--entity UC7--><g class="entity" data-qualified-name="Syst.me de Jeu.Phase de Jeu.UC7" data-source-line="20" id="ent0014"><ellipse cx="430.9686" cy="674.0037" fill="#F1F1F1" rx="123.6686" ry="27.1337" style="stroke:#181818;stroke-width:0.5;"/><text fill="#000000" font-family="sans-serif" font-size="14" lengthAdjust="spacing" textLength="227.165" x="317.3861" y="678.6522">Consulter le planning et le score</text></g><!--entity UC8--><g class="entity" data-qualified-name="Syst.me de Jeu.Phase de Jeu.UC8" data-source-line="21" id="ent0015"><ellipse cx="430.9681" cy="763.0036" fill="#F1F1F1" rx="123.8681" ry="27.1736" style="stroke:#181818;stroke-width:0.5;"/><text fill="#000000" font-family="sans-serif" font-size="14" lengthAdjust="spacing" textLength="227.5889" x="317.1737" y="767.6521">Acc&#233;der &#224; un parcours d&#233;bloqu&#233;</text></g><!--entity UC9--><g class="entity" data-qualified-name="Syst.me de Jeu.Phase de Jeu.UC9" data-source-line="22" id="ent0016"><ellipse cx="430.9672" cy="858.0014" fill="#F1F1F1" rx="152.0072" ry="32.8014" style="stroke:#181818;stroke-width:0.5;"/><text fill="#000000" font-family="sans-serif" font-size="14" lengthAdjust="spacing" textLength="286.6582" x="287.6381" y="862.6499">R&#233;aliser une &#233;preuve (Docs &amp; R&#233;ponses)</text></g><!--entity UC10--><g class="entity" data-qualified-name="Syst.me de Jeu.Administration.UC10" data-source-line="26" id="ent0018"><ellipse cx="430.9713" cy="995.0043" fill="#F1F1F1" rx="134.3213" ry="29.2643" style="stroke:#181818;stroke-width:0.5;"/><text fill="#000000" font-family="sans-serif" font-size="14" lengthAdjust="spacing" textLength="249.6826" x="306.13" y="999.6527">Suivre la progression en temps r&#233;el</text></g><!--entity UC11--><g class="entity" data-qualified-name="Syst.me de Jeu.Administration.UC11" data-source-line="27" id="ent0019"><ellipse cx="430.9672" cy="1083.9954" fill="#F1F1F1" rx="112.5272" ry="24.9054" style="stroke:#181818;stroke-width:0.5;"/><text fill="#000000" font-family="sans-serif" font-size="14" lengthAdjust="spacing" textLength="203.335" x="329.2997" y="1088.6439">G&#233;rer les utilisateurs et r&#244;les</text></g><!--entity UC12--><g class="entity" data-qualified-name="Syst.me de Jeu.Administration.UC12" data-source-line="28" id="ent0020"><ellipse cx="430.9739" cy="1176.9988" fill="#F1F1F1" rx="155.3439" ry="33.4688" style="stroke:#181818;stroke-width:0.5;"/><text fill="#000000" font-family="sans-serif" font-size="14" lengthAdjust="spacing" textLength="293.5898" x="284.179" y="1181.6472">G&#233;rer les &#233;quipes (Nom, Score, Membres)</text></g><!--entity UC13--><g class="entity" data-qualified-name="Syst.me de Jeu.Administration.UC13" data-source-line="29" id="ent0021"><ellipse cx="430.9661" cy="1277.0012" fill="#F1F1F1" rx="145.7061" ry="31.5412" style="stroke:#181818;stroke-width:0.5;"/><text fill="#000000" font-family="sans-serif" font-size="14" lengthAdjust="spacing" textLength="273.5332" x="294.1995" y="1281.6497">G&#233;rer les &#233;preuves et parcours (CRUD)</text></g><!--entity UC14--><g class="entity" data-qualified-name="Syst.me de Jeu.Administration.UC14" data-source-line="30" id="ent0022"><ellipse cx="430.9703" cy="1364.0021" fill="#F1F1F1" rx="88.4603" ry="20.0921" style="stroke:#181818;stroke-width:0.5;"/><text fill="#000000" font-family="sans-serif" font-size="14" lengthAdjust="spacing" textLength="150.2471" x="355.8468" y="1368.6505">H&#233;berger des m&#233;dias</text></g><!--entity UC15--><g class="entity" data-qualified-name="Syst.me de Jeu.Administration.UC15" data-source-line="31" id="ent0023"><ellipse cx="430.9713" cy="1453.0023" fill="#F1F1F1" rx="155.5613" ry="33.5123" style="stroke:#181818;stroke-width:0.5;"/><text fill="#000000" font-family="sans-serif" font-size="14" lengthAdjust="spacing" textLength="294.041" x="283.9508" y="1457.6507">Param&#233;trer les sessions et plannings auto</text></g><!--entity UC16--><g class="entity" data-qualified-name="Syst.me de Jeu.Administration.UC16" data-source-line="32" id="ent0024"><ellipse cx="430.9717" cy="1554.0003" fill="#F1F1F1" rx="150.3017" ry="32.4603" style="stroke:#181818;stroke-width:0.5;"/><text fill="#000000" font-family="sans-serif" font-size="14" lengthAdjust="spacing" textLength="283.1104" x="289.4165" y="1558.6488">Forcer la validation d'une &#233;preuve (Bug)</text></g><!--entity V--><g class="entity" data-qualified-name="V" data-source-line="4" id="ent0002"><ellipse cx="163.1109" cy="266.35" fill="#F1F1F1" rx="8" ry="8" style="stroke:#181818;stroke-width:0.5;"/><path d="M163.1109,274.35 L163.1109,301.35 M150.1109,282.35 L176.1109,282.35 M163.1109,301.35 L150.1109,316.35 M163.1109,301.35 L176.1109,316.35" fill="none" style="stroke:#181818;stroke-width:0.5;"/><text fill="#000000" font-family="sans-serif" font-size="14" lengthAdjust="spacing" textLength="53.3818" x="136.42" y="330.8451">Visiteur</text></g><!--entity J--><g class="entity" data-qualified-name="J" data-source-line="5" id="ent0003"><ellipse cx="28.4048" cy="600.35" fill="#F1F1F1" rx="8" ry="8" style="stroke:#181818;stroke-width:0.5;"/><path d="M28.4048,608.35 L28.4048,635.35 M15.4048,616.35 L41.4048,616.35 M28.4048,635.35 L15.4048,650.35 M28.4048,635.35 L41.4048,650.35" fill="none" style="stroke:#181818;stroke-width:0.5;"/><text fill="#000000" font-family="sans-serif" font-size="14" lengthAdjust="spacing" textLength="44.8096" x="6" y="664.8451">Joueur</text></g><!--entity A--><g class="entity" data-qualified-name="A" data-source-line="6" id="ent0004"><ellipse cx="163.1118" cy="1247.35" fill="#F1F1F1" rx="8" ry="8" style="stroke:#181818;stroke-width:0.5;"/><path d="M163.1118,1255.35 L163.1118,1282.35 M150.1118,1263.35 L176.1118,1263.35 M163.1118,1282.35 L150.1118,1297.35 M163.1118,1282.35 L176.1118,1297.35" fill="none" style="stroke:#181818;stroke-width:0.5;"/><text fill="#000000" font-family="sans-serif" font-size="14" lengthAdjust="spacing" textLength="104.6035" x="110.81" y="1311.8451">Administrateur</text></g><!--link V to UC1--><g class="link" data-entity-1="ent0002" data-entity-2="ent0007" data-link-type="dependency" data-source-line="37" id="lnk25"><path d="M170.84,257.59 C178.67,224.59 194.94,178.29 227.41,152 C252.88,131.38 280.0312,121.2172 312.0212,115.2672" fill="none" id="V-to-UC1" style="stroke:#181818;stroke-width:1;"/><polygon fill="#181818" points="317.92,114.17,308.3403,111.8832,313.0043,115.0843,309.8032,119.7483,317.92,114.17" style="stroke:#181818;stroke-width:1;"/></g><!--link V to UC2--><g class="link" data-entity-1="ent0002" data-entity-2="ent0008" data-link-type="dependency" data-source-line="38" id="lnk26"><path d="M190.14,274.09 C201.07,265.83 214.28,256.98 227.41,251 C254.33,238.73 278.8857,230.7415 307.7757,223.5915" fill="none" id="V-to-UC2" style="stroke:#181818;stroke-width:1;"/><polygon fill="#181818" points="313.6,222.15,303.9026,220.4293,308.7464,223.3512,305.8246,228.195,313.6,222.15" style="stroke:#181818;stroke-width:1;"/></g><!--link V to UC3--><g class="link" data-entity-1="ent0002" data-entity-2="ent0009" data-link-type="dependency" data-source-line="39" id="lnk27"><path d="M190.09,296 C217.66,296 257.24,296 301.32,296" fill="none" id="V-to-UC3" style="stroke:#181818;stroke-width:1;"/><polygon fill="#181818" points="307.32,296,298.32,292,302.32,296,298.32,300,307.32,296" style="stroke:#181818;stroke-width:1;"/></g><!--link V to UC4--><g class="link" data-entity-1="ent0002" data-entity-2="ent0010" data-link-type="dependency" data-source-line="40" id="lnk28"><path d="M190.07,318.06 C200.99,326.35 214.22,335.17 227.41,341 C258.36,354.67 288.0106,363.0332 320.5806,369.6632" fill="none" id="V-to-UC4" style="stroke:#181818;stroke-width:1;"/><polygon fill="#181818" points="326.46,370.86,318.4387,365.1451,321.5605,369.8626,316.843,372.9844,326.46,370.86" style="stroke:#181818;stroke-width:1;"/></g><!--link J to V--><g class="link" data-entity-1="ent0003" data-entity-2="ent0002" data-link-type="extension" data-source-line="43" id="lnk29"><path d="M44.76,591.36 C70.31,527.05 114.6254,415.5287 140.1454,351.2787" fill="none" id="J-to-V" style="stroke:#181818;stroke-width:1;"/><polygon fill="none" points="146.79,334.55,134.5692,349.0638,145.7216,353.4936,146.79,334.55" style="stroke:#181818;stroke-width:1;"/></g><!--link J to UC5--><g class="link" data-entity-1="ent0003" data-entity-2="ent0012" data-link-type="dependency" data-source-line="44" id="lnk30"><path d="M51.24,618.03 C67.48,609.3 90.28,597.41 110.81,588 C161.6,564.72 173.71,556.42 227.41,541 C270.67,528.58 314.4852,520.5519 353.8552,514.7019" fill="none" id="J-to-UC5" style="stroke:#181818;stroke-width:1;"/><polygon fill="#181818" points="359.79,513.82,350.2998,511.1862,354.8443,514.5549,351.4756,519.0993,359.79,513.82" style="stroke:#181818;stroke-width:1;"/></g><!--link J to UC6--><g class="link" data-entity-1="ent0003" data-entity-2="ent0013" data-link-type="dependency" data-source-line="45" id="lnk31"><path d="M51.15,626.89 C67.54,624.59 90.56,621.45 110.81,619 C180.1,610.63 252.0214,602.9226 313.5014,596.6126" fill="none" id="J-to-UC6" style="stroke:#181818;stroke-width:1;"/><polygon fill="#181818" points="319.47,596,310.1086,592.9398,314.4961,596.5105,310.9254,600.898,319.47,596" style="stroke:#181818;stroke-width:1;"/></g><!--link J to UC7--><g class="link" data-entity-1="ent0003" data-entity-2="ent0014" data-link-type="dependency" data-source-line="46" id="lnk32"><path d="M51.23,632.4 C101.18,637.88 220.7459,651.0147 313.6759,661.2247" fill="none" id="J-to-UC7" style="stroke:#181818;stroke-width:1;"/><polygon fill="#181818" points="319.64,661.88,311.1307,656.921,314.6699,661.3339,310.257,664.8732,319.64,661.88" style="stroke:#181818;stroke-width:1;"/></g><!--link J to UC8--><g class="link" data-entity-1="ent0003" data-entity-2="ent0015" data-link-type="dependency" data-source-line="47" id="lnk33"><path d="M51.08,641.56 C86.87,660.22 161.01,697.13 227.41,719 C261.08,730.09 292.954,737.9464 326.654,744.9064" fill="none" id="J-to-UC8" style="stroke:#181818;stroke-width:1;"/><polygon fill="#181818" points="332.53,746.12,324.5251,740.3823,327.6333,745.1087,322.907,748.217,332.53,746.12" style="stroke:#181818;stroke-width:1;"/></g><!--link J to UC9--><g class="link" data-entity-1="ent0003" data-entity-2="ent0016" data-link-type="dependency" data-source-line="48" id="lnk34"><path d="M51.2,658.07 C84.42,698.6 151.88,772.56 227.41,808 C253.81,820.39 277.8259,828.4479 306.3059,835.7079" fill="none" id="J-to-UC9" style="stroke:#181818;stroke-width:1;"/><polygon fill="#181818" points="312.12,837.19,304.387,831.0908,307.2749,835.9549,302.4108,838.8429,312.12,837.19" style="stroke:#181818;stroke-width:1;"/></g><!--link A to UC10--><g class="link" data-entity-1="ent0004" data-entity-2="ent0018" data-link-type="dependency" data-source-line="51" id="lnk35"><path d="M169.6,1238.58 C178.87,1179.19 199.37,1069.07 227.41,1042 C247.61,1022.5 268.4214,1012.0616 295.6914,1004.8116" fill="none" id="A-to-UC10" style="stroke:#181818;stroke-width:1;"/><polygon fill="#181818" points="301.49,1003.27,291.7644,1001.7167,296.6579,1004.5547,293.8199,1009.4481,301.49,1003.27" style="stroke:#181818;stroke-width:1;"/></g><!--link A to UC11--><g class="link" data-entity-1="ent0004" data-entity-2="ent0019" data-link-type="dependency" data-source-line="52" id="lnk36"><path d="M169.95,1238.45 C177.27,1203.78 193.3,1154.11 227.41,1126 C253.12,1104.82 280.8853,1094.535 313.3753,1088.675" fill="none" id="A-to-UC11" style="stroke:#181818;stroke-width:1;"/><polygon fill="#181818" points="319.28,1087.61,309.7129,1085.271,314.3594,1088.4975,311.1329,1093.144,319.28,1087.61" style="stroke:#181818;stroke-width:1;"/></g><!--link A to UC12--><g class="link" data-entity-1="ent0004" data-entity-2="ent0020" data-link-type="dependency" data-source-line="53" id="lnk37"><path d="M209.33,1238.54 C215.19,1234.61 221.29,1230.98 227.41,1228 C253.18,1215.47 276.5271,1207.3453 304.5271,1199.9853" fill="none" id="A-to-UC12" style="stroke:#181818;stroke-width:1;"/><polygon fill="#181818" points="310.33,1198.46,300.6088,1196.8794,305.4943,1199.7311,302.6426,1204.6166,310.33,1198.46" style="stroke:#181818;stroke-width:1;"/></g><!--link A to UC13--><g class="link" data-entity-1="ent0004" data-entity-2="ent0021" data-link-type="dependency" data-source-line="54" id="lnk38"><path d="M215.69,1277 C235.85,1277 254.06,1277 278.85,1277" fill="none" id="A-to-UC13" style="stroke:#181818;stroke-width:1;"/><polygon fill="#181818" points="284.85,1277,275.85,1273,279.85,1277,275.85,1281,284.85,1277" style="stroke:#181818;stroke-width:1;"/></g><!--link A to UC14--><g class="link" data-entity-1="ent0004" data-entity-2="ent0022" data-link-type="dependency" data-source-line="55" id="lnk39"><path d="M208.8,1315.59 C214.8,1319.55 221.07,1323.15 227.41,1326 C264.79,1342.78 303.3068,1351.3362 341.0368,1356.5662" fill="none" id="A-to-UC14" style="stroke:#181818;stroke-width:1;"/><polygon fill="#181818" points="346.98,1357.39,338.6145,1352.1922,342.0274,1356.7035,337.516,1360.1164,346.98,1357.39" style="stroke:#181818;stroke-width:1;"/></g><!--link A to UC15--><g class="link" data-entity-1="ent0004" data-entity-2="ent0023" data-link-type="dependency" data-source-line="56" id="lnk40"><path d="M174.24,1315.58 C183.56,1343.57 200.15,1380.2 227.41,1402 C247.1,1417.74 265.3012,1426.9064 289.7112,1434.5064" fill="none" id="A-to-UC15" style="stroke:#181818;stroke-width:1;"/><polygon fill="#181818" points="295.44,1436.29,288.036,1429.7954,290.666,1434.8036,285.6578,1437.4337,295.44,1436.29" style="stroke:#181818;stroke-width:1;"/></g><!--link A to UC16--><g class="link" data-entity-1="ent0004" data-entity-2="ent0024" data-link-type="dependency" data-source-line="57" id="lnk41"><path d="M163.67,1315.39 C165.26,1365.87 175.89,1453.99 227.41,1504 C245.48,1521.53 262.9452,1531.4022 287.1452,1539.1422" fill="none" id="A-to-UC16" style="stroke:#181818;stroke-width:1;"/><polygon fill="#181818" points="292.86,1540.97,285.5063,1534.4184,288.0977,1539.4468,283.0692,1542.0382,292.86,1540.97" style="stroke:#181818;stroke-width:1;"/></g><?plantuml-src xLHDRzD04BtlhnZbG5AfBKsQfksb8gJY8m9KDMhkMtjmLhLttVsmY83_mX7V-GV-OumTUrsd524X90wHSdXQxvkPVUzbOlnemIhG8bfP28N6m0ebcRaJCkMQ9v3ou8v7kB3h6A7yp6KK8sCyi4f3RocCiEXq3xY1PNCwLwuvcpTdqp0HKXYhkRy_PSnNXDvYRMpnFK484UReUl2P0T2ldW1wLojk4DvA4sYHbcF2CrYYjBYv2k0C1kMLtcMH1yfbMcY8-qwA3BK1j41jKc63LTNzPZRiibuNkKODXWe7Aaajmc2cYvoNhPxFb9JuYT1UJHvroOk-g0RJ2CKtwbhaMP5BJ6W-64nZr1ORvd6NEGrMQAclas15S4TZ3ju9b82Vw5HwrfXONzbZFHwgzQ3gRAN8ch8g3PJVEv5YNUXaktrGv27rvmv2RbQtYkiGmdwNDDcghgHnSJbrAMdCfHGogXKsWT8DxVI9NYGHFPSIHZQHDM6HtyRgtXLvpJlhygx9XLWOR9wJQdGPsNEf0aCXeCyf3OIcqUhyaLOFqaSUFb9huKH6piKSKgqYZSQKyI8JB2Qf0Ke1nareZdwPcXWDE2jeoYhVLTnqyOEE6zxmILujjO711vNimw8KS1_UOtAhspSDHx_XRmIfcdfH1xFhcqlFtWhT6r8STKG5Gg8bv8hWVj9nz-vLkGYAt3Rjp4QUJRVQUqFniQefi1MnLqe79PT3HZQ6bGMKiAwNBrtaXvrK_f63VRZ6kBfFswLUDMm91mSNrT-tGIEFZZqQTzcRbGG3UhYcCX0woEg2e1oWiMKY_H5VSrbgkIxoFJQdabykQBtDwzed7aqyElNepAFpxWnL2Dcq6V-eXSCMZbfutC9n2qzQE67i1ShG9Op5kqs-s-IxJRxRvF_f9l_ZfVqto_RVhDRXuUXeD3aS_WG0?></g></svg>